<?xml version="1.0" standalone="no"?><!-- Generator: Gravit.io --><svg xmlns="http://www.w3.org/2000/svg" xmlns:xlink="http://www.w3.org/1999/xlink" style="isolation:isolate" viewBox="0 0 48 48" width="48" height="48"><defs><clipPath id="_clipPath_bDhZMCnRAygRRstSINSYog6KwtMlicP8"><rect width="48" height="48"/></clipPath></defs><g clip-path="url(#_clipPath_bDhZMCnRAygRRstSINSYog6KwtMlicP8)"><clipPath id="_clipPath_sf3Mys935A5DkCLRpCqLvCNOi2mBT9UW"><path d=" M 44.5 20 L 24 20 L 24 28.5 L 35.8 28.5 C 34.7 33.9 30.1 37 24 37 C 16.8 37 11 31.2 11 24 C 11 16.8 16.8 11 24 11 C 27.1 11 29.9 12.1 32.1 13.9 L 38.5 7.5 C 34.6 4.1 29.6 2 24 2 C 11.8 2 2 11.8 2 24 C 2 36.2 11.8 46 24 46 C 35 46 45 38 45 24 C 45 22.7 44.8 21.3 44.5 20 Z " fill="rgb(255,255,255)"/></clipPath><g clip-path="url(#_clipPath_sf3Mys935A5DkCLRpCqLvCNOi2mBT9UW)"><path d=" M 0 37 L 0 11 L 17 24 L 0 37 Z " fill="rgb(16,36,34)"/></g><clipPath id="_clipPath_ZaCTekDw4AJkMdynXa4yKXHZ7lNOvhHK"><path d=" M 44.5 20 L 24 20 L 24 28.5 L 35.8 28.5 C 34.7 33.9 30.1 37 24 37 C 16.8 37 11 31.2 11 24 C 11 16.8 16.8 11 24 11 C 27.1 11 29.9 12.1 32.1 13.9 L 38.5 7.5 C 34.6 4.1 29.6 2 24 2 C 11.8 2 2 11.8 2 24 C 2 36.2 11.8 46 24 46 C 35 46 45 38 45 24 C 45 22.7 44.8 21.3 44.5 20 Z " fill="rgb(255,255,255)"/></clipPath><g clip-path="url(#_clipPath_ZaCTekDw4AJkMdynXa4yKXHZ7lNOvhHK)"><path d=" M 0 11 L 17 24 L 24 17.9 L 48 14 L 48 0 L 0 0 L 0 11 Z " fill="rgb(16,36,34)"/></g><clipPath id="_clipPath_L851Of04MLLomQg8uMrudHwA0H9fKi6H"><path d=" M 44.5 20 L 24 20 L 24 28.5 L 35.8 28.5 C 34.7 33.9 30.1 37 24 37 C 16.8 37 11 31.2 11 24 C 11 16.8 16.8 11 24 11 C 27.1 11 29.9 12.1 32.1 13.9 L 38.5 7.5 C 34.6 4.1 29.6 2 24 2 C 11.8 2 2 11.8 2 24 C 2 36.2 11.8 46 24 46 C 35 46 45 38 45 24 C 45 22.7 44.8 21.3 44.5 20 Z " fill="rgb(255,255,255)"/></clipPath><g clip-path="url(#_clipPath_L851Of04MLLomQg8uMrudHwA0H9fKi6H)"><path d=" M 0 37 L 30 14 L 37.9 15 L 48 0 L 48 48 L 0 48 L 0 37 Z " fill="rgb(16,36,34)"/></g><clipPath id="_clipPath_D1Ef6XCO4HgPP6RRBWWRxwyQRUcEiLHX"><path d=" M 44.5 20 L 24 20 L 24 28.5 L 35.8 28.5 C 34.7 33.9 30.1 37 24 37 C 16.8 37 11 31.2 11 24 C 11 16.8 16.8 11 24 11 C 27.1 11 29.9 12.1 32.1 13.9 L 38.5 7.5 C 34.6 4.1 29.6 2 24 2 C 11.8 2 2 11.8 2 24 C 2 36.2 11.8 46 24 46 C 35 46 45 38 45 24 C 45 22.7 44.8 21.3 44.5 20 Z " fill="rgb(255,255,255)"/></clipPath><g clip-path="url(#_clipPath_D1Ef6XCO4HgPP6RRBWWRxwyQRUcEiLHX)"><path d=" M 48 48 L 17 24 L 13 21 L 48 11 L 48 48 Z " fill="rgb(16,36,34)"/></g></g></svg>