<?xml version="1.0" standalone="no"?><!-- Generator: Gravit.io --><svg xmlns="http://www.w3.org/2000/svg" xmlns:xlink="http://www.w3.org/1999/xlink" style="isolation:isolate" viewBox="0 0 48 48" width="48" height="48"><defs><clipPath id="_clipPath_y52si6bRSgKw3AKY5EoLiZkeKrCorgXC"><rect width="48" height="48"/></clipPath></defs><g clip-path="url(#_clipPath_y52si6bRSgKw3AKY5EoLiZkeKrCorgXC)"><clipPath id="_clipPath_3MoXBRPwXoRqRbzzZLkBS6bHqdcn0S5Z"><rect x="0" y="0" width="48" height="48" transform="matrix(1,0,0,1,0,0)" fill="rgb(255,255,255)"/></clipPath><g clip-path="url(#_clipPath_3MoXBRPwXoRqRbzzZLkBS6bHqdcn0S5Z)"><g><clipPath id="_clipPath_vxi6yaolJvRMrjJgXXqIwNAG89exK7j8"><path d=" M 44.5 20 L 24 20 L 24 28.5 L 35.8 28.5 C 34.7 33.9 30.1 37 24 37 C 16.8 37 11 31.2 11 24 C 11 16.8 16.8 11 24 11 C 27.1 11 29.9 12.1 32.1 13.9 L 38.5 7.5 C 34.6 4.1 29.6 2 24 2 C 11.8 2 2 11.8 2 24 C 2 36.2 11.8 46 24 46 C 35 46 45 38 45 24 C 45 22.7 44.8 21.3 44.5 20 Z " fill="rgb(255,255,255)"/></clipPath><g clip-path="url(#_clipPath_vxi6yaolJvRMrjJgXXqIwNAG89exK7j8)"><g><path d=" M 0 37 L 0 11 L 17 24 L 0 37 L 0 37 Z " fill="rgb(244,67,54)"/></g></g><clipPath id="_clipPath_ouQpcWhQOoT4kW312Mx56RQ04DBjzhy4"><path d=" M 44.5 20 L 24 20 L 24 28.5 L 35.8 28.5 C 34.7 33.9 30.1 37 24 37 C 16.8 37 11 31.2 11 24 C 11 16.8 16.8 11 24 11 C 27.1 11 29.9 12.1 32.1 13.9 L 38.5 7.5 C 34.6 4.1 29.6 2 24 2 C 11.8 2 2 11.8 2 24 C 2 36.2 11.8 46 24 46 C 35 46 45 38 45 24 C 45 22.7 44.8 21.3 44.5 20 Z " fill="rgb(255,255,255)"/></clipPath><g clip-path="url(#_clipPath_ouQpcWhQOoT4kW312Mx56RQ04DBjzhy4)"><g><path d=" M 0 11 L 17 24 L 24 17.9 L 48 14 L 48 0 L 0 0 L 0 11 L 0 11 Z " fill="rgb(244,67,54)"/></g></g><clipPath id="_clipPath_LO6Byt50YWVTZlnGODFViD0hAuFtjo7e"><path d=" M 44.5 20 L 24 20 L 24 28.5 L 35.8 28.5 C 34.7 33.9 30.1 37 24 37 C 16.8 37 11 31.2 11 24 C 11 16.8 16.8 11 24 11 C 27.1 11 29.9 12.1 32.1 13.9 L 38.5 7.5 C 34.6 4.1 29.6 2 24 2 C 11.8 2 2 11.8 2 24 C 2 36.2 11.8 46 24 46 C 35 46 45 38 45 24 C 45 22.7 44.8 21.3 44.5 20 Z " fill="rgb(255,255,255)"/></clipPath><g clip-path="url(#_clipPath_LO6Byt50YWVTZlnGODFViD0hAuFtjo7e)"><g><path d=" M 0 37 L 30 14 L 37.9 15 L 48 0 L 48 48 L 0 48 L 0 37 L 0 37 Z " fill="rgb(244,67,54)"/></g></g><clipPath id="_clipPath_1BZyJu39PZol7Z7N3JiuBh9rOQNIZTWv"><path d=" M 44.5 20 L 24 20 L 24 28.5 L 35.8 28.5 C 34.7 33.9 30.1 37 24 37 C 16.8 37 11 31.2 11 24 C 11 16.8 16.8 11 24 11 C 27.1 11 29.9 12.1 32.1 13.9 L 38.5 7.5 C 34.6 4.1 29.6 2 24 2 C 11.8 2 2 11.8 2 24 C 2 36.2 11.8 46 24 46 C 35 46 45 38 45 24 C 45 22.7 44.8 21.3 44.5 20 Z " fill="rgb(255,255,255)"/></clipPath><g clip-path="url(#_clipPath_1BZyJu39PZol7Z7N3JiuBh9rOQNIZTWv)"><g><path d=" M 48 48 L 17 24 L 13 21 L 48 11 L 48 48 L 48 48 Z " fill="rgb(244,67,54)"/></g></g></g></g></g></svg>